<svg width="560" height="318" viewBox="0 0 560 318" fill="none" xmlns="http://www.w3.org/2000/svg">
<path d="M53.8041 265.685C73.5366 250.603 111.155 233.295 111.155 233.295C111.155 233.295 4.45514 212.652 0.213141 177.858C-4.02885 143.064 56.4542 138.581 56.4542 138.581C56.4542 138.581 34.4494 109.147 26.6192 88.4624C-25.8786 -50.2149 425.198 3.12753 501.907 54.2174C527.284 71.119 497.169 96.1481 497.169 96.1481C497.169 96.1481 555.266 114.051 559.718 139.118C564.178 164.23 514.287 193.64 514.287 193.64C514.287 193.64 558.303 195.957 555.913 219.589C551.607 262.154 470.571 279.601 417.381 290.658C279.702 319.279 -47.7046 343.271 53.8041 265.685Z" fill="#DEF6D5"/>
</svg>
