<svg width="528" height="338" viewBox="0 0 528 338" fill="none" xmlns="http://www.w3.org/2000/svg">
<path d="M52.7337 94.7569C52.7337 94.7569 23.558 80.0022 33.8885 56.3944C70.4524 -27.1633 284.786 6.85017 284.786 6.85017C336.144 6.85017 469.686 25.4385 483.992 45.9631C498.298 66.4877 486.19 84.3015 467.039 97.8554C489.487 97.8554 528 125.926 528 160.144C528 200.358 488.471 223.509 456.207 239.204C476.98 239.204 513.2 247.761 518.371 273.422C527.002 316.255 427.794 315.623 391.689 306.974C362.07 320.669 262.487 338 221.421 338C180.355 338 172.912 323.213 176.836 316.5C148.894 322.309 44.4601 311.92 38.4848 284.461C30.7629 248.977 89.0451 237.668 89.0451 237.668C89.0451 237.668 5.85878 219.698 0.334868 172.817C-4.88898 128.482 52.7337 94.7569 52.7337 94.7569Z" fill="#DEF6D5"/>
</svg>
