<svg width="340" height="280" viewBox="0 0 340 280" fill="none" xmlns="http://www.w3.org/2000/svg">
<path d="M32.6668 233.937C44.6472 220.657 67.4867 205.417 67.4867 205.417C67.4867 205.417 2.7049 187.241 0.129407 156.605C-2.44609 125.968 34.2758 122.021 34.2758 122.021C34.2758 122.021 20.9157 96.1039 16.1617 77.8914C-15.712 -44.2144 258.156 2.7538 304.729 47.7386C320.137 62.6205 301.853 84.6587 301.853 84.6587C301.853 84.6587 337.126 100.422 339.829 122.494C342.537 144.605 312.246 170.501 312.246 170.501C312.246 170.501 338.97 172.541 337.518 193.349C334.904 230.828 285.704 246.19 253.41 255.925C169.819 281.126 -28.9635 302.252 32.6668 233.937Z" fill="#DEF6D5"/>
</svg>
