<svg width="266" height="179" viewBox="0 0 266 179" fill="none" xmlns="http://www.w3.org/2000/svg">
<path d="M256 89.5412C256 89.5412 204.98 46.8385 176.963 30.6081C140.148 9.28086 120.59 11 120.59 11C120.59 11 130.357 21.6561 161.031 49.097C190.316 75.2941 207.5 104 207.5 104C207.5 104 179.386 82.9728 146.5 67C106.523 47.583 45.0166 30.6081 45.0166 30.6081C45.0166 30.6081 91.287 52.1809 120.59 73.5C164.655 105.56 213 153.5 213 153.5C213 153.5 147.533 108.028 100 89.5412C67.0727 76.7348 10.5 67.0001 10.5 67.0001C10.5 67.0001 78.7128 97.3827 115 123C138.368 139.497 166.5 169 166.5 169C166.5 169 133.783 148.685 109.5 139.5C86.3332 130.737 45.0166 123 45.0166 123" stroke="#FFCC46" stroke-width="20" stroke-linecap="round" stroke-linejoin="round"/>
</svg>
