<svg width="145" height="181" viewBox="0 0 145 181" fill="none" xmlns="http://www.w3.org/2000/svg">
<path d="M108 27.9347C108 27.9347 120.447 61.2513 126.5 84.7656C132.553 108.28 139 148.359 139 148.359C139 148.359 116.008 105.199 100 80.0297C83.992 54.8606 57.0181 19.4599 57.0181 19.4599C57.0181 19.4599 72.5542 56.3757 82.509 80.0297C92.4639 103.684 108 140.599 108 140.599L27.5 6L93 174L10.4796 36.5552C28.654 82.9262 38.8437 108.925 57.0181 155.296L6 74.7072C6 74.7072 17.7188 105.116 23.5 125.145C28.9358 143.978 35 174 35 174" stroke="#FFCC46" stroke-width="12" stroke-linecap="round" stroke-linejoin="round"/>
</svg>
